<mxfile host="Electron" modified="2023-05-02T09:42:52.934Z" agent="Mozilla/5.0 (Windows NT 10.0; Win64; x64) AppleWebKit/537.36 (KHTML, like Gecko) draw.io/21.1.2 Chrome/106.0.5249.199 Electron/21.4.3 Safari/537.36" etag="FpCBLtCwQrSySPYPVKzg" version="21.1.2" type="device">
  <diagram id="C5RBs43oDa-KdzZeNtuy" name="Page-1">
    <mxGraphModel dx="2665" dy="2248" grid="1" gridSize="10" guides="1" tooltips="1" connect="1" arrows="1" fold="1" page="1" pageScale="1" pageWidth="827" pageHeight="1169" math="0" shadow="0">
      <root>
        <mxCell id="WIyWlLk6GJQsqaUBKTNV-0" />
        <mxCell id="WIyWlLk6GJQsqaUBKTNV-1" parent="WIyWlLk6GJQsqaUBKTNV-0" />
        <mxCell id="D87iinh34pLvcW_0fAWq-0" value="Sneaker" style="swimlane;fontStyle=1;childLayout=stackLayout;horizontal=1;startSize=26;fillColor=#dae8fc;horizontalStack=0;resizeParent=1;resizeParentMax=0;resizeLast=0;collapsible=1;marginBottom=0;strokeColor=#6c8ebf;" parent="WIyWlLk6GJQsqaUBKTNV-1" vertex="1">
          <mxGeometry x="381" y="240" width="170" height="52" as="geometry" />
        </mxCell>
        <mxCell id="D87iinh34pLvcW_0fAWq-2" value="Visualizer &lt;interface&gt;" style="swimlane;fontStyle=3;childLayout=stackLayout;horizontal=1;startSize=26;fillColor=#fff2cc;horizontalStack=0;resizeParent=1;resizeParentMax=0;resizeLast=0;collapsible=1;marginBottom=0;strokeColor=#d6b656;" parent="WIyWlLk6GJQsqaUBKTNV-1" vertex="1">
          <mxGeometry x="70" y="240" width="260" height="156" as="geometry" />
        </mxCell>
        <mxCell id="D87iinh34pLvcW_0fAWq-3" value="save(path)    " style="text;strokeColor=none;fillColor=none;align=left;verticalAlign=top;spacingLeft=4;spacingRight=4;overflow=hidden;rotatable=0;points=[[0,0.5],[1,0.5]];portConstraint=eastwest;" parent="D87iinh34pLvcW_0fAWq-2" vertex="1">
          <mxGeometry y="26" width="260" height="26" as="geometry" />
        </mxCell>
        <mxCell id="D87iinh34pLvcW_0fAWq-4" value="clean()" style="text;strokeColor=none;fillColor=none;align=left;verticalAlign=top;spacingLeft=4;spacingRight=4;overflow=hidden;rotatable=0;points=[[0,0.5],[1,0.5]];portConstraint=eastwest;" parent="D87iinh34pLvcW_0fAWq-2" vertex="1">
          <mxGeometry y="52" width="260" height="26" as="geometry" />
        </mxCell>
        <mxCell id="D87iinh34pLvcW_0fAWq-5" value="make_roi(Roi)" style="text;strokeColor=none;fillColor=none;align=left;verticalAlign=top;spacingLeft=4;spacingRight=4;overflow=hidden;rotatable=0;points=[[0,0.5],[1,0.5]];portConstraint=eastwest;" parent="D87iinh34pLvcW_0fAWq-2" vertex="1">
          <mxGeometry y="78" width="260" height="26" as="geometry" />
        </mxCell>
        <mxCell id="D87iinh34pLvcW_0fAWq-6" value="make_seeker(Seeker)" style="text;strokeColor=none;fillColor=none;align=left;verticalAlign=top;spacingLeft=4;spacingRight=4;overflow=hidden;rotatable=0;points=[[0,0.5],[1,0.5]];portConstraint=eastwest;" parent="D87iinh34pLvcW_0fAWq-2" vertex="1">
          <mxGeometry y="104" width="260" height="26" as="geometry" />
        </mxCell>
        <mxCell id="D87iinh34pLvcW_0fAWq-7" value="make_sneaker(Sneaker)" style="text;strokeColor=none;fillColor=none;align=left;verticalAlign=top;spacingLeft=4;spacingRight=4;overflow=hidden;rotatable=0;points=[[0,0.5],[1,0.5]];portConstraint=eastwest;" parent="D87iinh34pLvcW_0fAWq-2" vertex="1">
          <mxGeometry y="130" width="260" height="26" as="geometry" />
        </mxCell>
        <mxCell id="D87iinh34pLvcW_0fAWq-9" value="Simulator" style="swimlane;fontStyle=1;childLayout=stackLayout;horizontal=1;startSize=26;fillColor=#d5e8d4;horizontalStack=0;resizeParent=1;resizeParentMax=0;resizeLast=0;collapsible=1;marginBottom=0;strokeColor=#82b366;fontSize=14;" parent="WIyWlLk6GJQsqaUBKTNV-1" vertex="1">
          <mxGeometry x="515" y="394" width="220" height="52" as="geometry" />
        </mxCell>
        <mxCell id="D87iinh34pLvcW_0fAWq-10" value="run()" style="text;strokeColor=none;fillColor=none;align=left;verticalAlign=top;spacingLeft=4;spacingRight=4;overflow=hidden;rotatable=0;points=[[0,0.5],[1,0.5]];portConstraint=eastwest;" parent="D87iinh34pLvcW_0fAWq-9" vertex="1">
          <mxGeometry y="26" width="220" height="26" as="geometry" />
        </mxCell>
        <mxCell id="D87iinh34pLvcW_0fAWq-15" value="Roi" style="swimlane;fontStyle=1;childLayout=stackLayout;horizontal=1;startSize=26;fillColor=#dae8fc;horizontalStack=0;resizeParent=1;resizeParentMax=0;resizeLast=0;collapsible=1;marginBottom=0;strokeColor=#6c8ebf;" parent="WIyWlLk6GJQsqaUBKTNV-1" vertex="1">
          <mxGeometry x="841" y="240" width="160" height="104" as="geometry" />
        </mxCell>
        <mxCell id="D87iinh34pLvcW_0fAWq-16" value="height" style="text;strokeColor=none;fillColor=none;align=left;verticalAlign=top;spacingLeft=4;spacingRight=4;overflow=hidden;rotatable=0;points=[[0,0.5],[1,0.5]];portConstraint=eastwest;" parent="D87iinh34pLvcW_0fAWq-15" vertex="1">
          <mxGeometry y="26" width="160" height="26" as="geometry" />
        </mxCell>
        <mxCell id="D87iinh34pLvcW_0fAWq-472" value="width" style="text;strokeColor=none;fillColor=none;align=left;verticalAlign=top;spacingLeft=4;spacingRight=4;overflow=hidden;rotatable=0;points=[[0,0.5],[1,0.5]];portConstraint=eastwest;" parent="D87iinh34pLvcW_0fAWq-15" vertex="1">
          <mxGeometry y="52" width="160" height="26" as="geometry" />
        </mxCell>
        <mxCell id="D87iinh34pLvcW_0fAWq-473" value="xy" style="text;strokeColor=none;fillColor=none;align=left;verticalAlign=top;spacingLeft=4;spacingRight=4;overflow=hidden;rotatable=0;points=[[0,0.5],[1,0.5]];portConstraint=eastwest;" parent="D87iinh34pLvcW_0fAWq-15" vertex="1">
          <mxGeometry y="78" width="160" height="26" as="geometry" />
        </mxCell>
        <mxCell id="D87iinh34pLvcW_0fAWq-21" value="" style="endArrow=diamondThin;endFill=0;endSize=24;html=1;exitX=1;exitY=0.5;exitDx=0;exitDy=0;entryX=0.103;entryY=-0.013;entryDx=0;entryDy=0;entryPerimeter=0;" parent="WIyWlLk6GJQsqaUBKTNV-1" source="D87iinh34pLvcW_0fAWq-5" target="D87iinh34pLvcW_0fAWq-9" edge="1">
          <mxGeometry width="160" relative="1" as="geometry">
            <mxPoint x="335" y="260.0000000000001" as="sourcePoint" />
            <mxPoint x="545" y="364" as="targetPoint" />
            <Array as="points">
              <mxPoint x="420" y="360" />
              <mxPoint x="510" y="370" />
            </Array>
          </mxGeometry>
        </mxCell>
        <mxCell id="D87iinh34pLvcW_0fAWq-22" value="Seeker" style="swimlane;fontStyle=1;childLayout=stackLayout;horizontal=1;startSize=26;fillColor=#dae8fc;horizontalStack=0;resizeParent=1;resizeParentMax=0;resizeLast=0;collapsible=1;marginBottom=0;strokeColor=#6c8ebf;" parent="WIyWlLk6GJQsqaUBKTNV-1" vertex="1">
          <mxGeometry x="615" y="240" width="160" height="54" as="geometry" />
        </mxCell>
        <mxCell id="D87iinh34pLvcW_0fAWq-25" value="" style="endArrow=diamondThin;endFill=0;endSize=24;html=1;exitX=0.487;exitY=1.089;exitDx=0;exitDy=0;exitPerimeter=0;" parent="WIyWlLk6GJQsqaUBKTNV-1" target="D87iinh34pLvcW_0fAWq-9" edge="1">
          <mxGeometry width="160" relative="1" as="geometry">
            <mxPoint x="463.7900000000004" y="294.31399999999985" as="sourcePoint" />
            <mxPoint x="740" y="444" as="targetPoint" />
            <Array as="points">
              <mxPoint x="590" y="340" />
            </Array>
          </mxGeometry>
        </mxCell>
        <mxCell id="D87iinh34pLvcW_0fAWq-449" value="1...n" style="edgeLabel;html=1;align=center;verticalAlign=middle;resizable=0;points=[];" parent="D87iinh34pLvcW_0fAWq-25" vertex="1" connectable="0">
          <mxGeometry x="-0.1333" y="2" relative="1" as="geometry">
            <mxPoint as="offset" />
          </mxGeometry>
        </mxCell>
        <mxCell id="D87iinh34pLvcW_0fAWq-63" style="edgeStyle=orthogonalEdgeStyle;rounded=0;orthogonalLoop=1;jettySize=auto;html=1;exitX=0;exitY=0;exitDx=0;exitDy=0;entryX=0;entryY=0.25;entryDx=0;entryDy=0;endArrow=diamondThin;endFill=0;" parent="WIyWlLk6GJQsqaUBKTNV-1" source="D87iinh34pLvcW_0fAWq-15" target="D87iinh34pLvcW_0fAWq-15" edge="1">
          <mxGeometry relative="1" as="geometry" />
        </mxCell>
        <mxCell id="D87iinh34pLvcW_0fAWq-67" value="" style="endArrow=diamondThin;endFill=0;endSize=24;html=1;entryX=0.5;entryY=0;entryDx=0;entryDy=0;" parent="WIyWlLk6GJQsqaUBKTNV-1" target="D87iinh34pLvcW_0fAWq-9" edge="1">
          <mxGeometry width="160" relative="1" as="geometry">
            <mxPoint x="695" y="294" as="sourcePoint" />
            <mxPoint x="160" y="223" as="targetPoint" />
            <Array as="points">
              <mxPoint x="650" y="320" />
              <mxPoint x="630" y="350" />
            </Array>
          </mxGeometry>
        </mxCell>
        <mxCell id="D87iinh34pLvcW_0fAWq-450" value="1...n" style="edgeLabel;html=1;align=center;verticalAlign=middle;resizable=0;points=[];" parent="D87iinh34pLvcW_0fAWq-67" vertex="1" connectable="0">
          <mxGeometry x="-0.4309" y="-2" relative="1" as="geometry">
            <mxPoint as="offset" />
          </mxGeometry>
        </mxCell>
        <mxCell id="D87iinh34pLvcW_0fAWq-441" value="Canvas" style="swimlane;fontStyle=1;childLayout=stackLayout;horizontal=1;startSize=26;fillColor=#dae8fc;horizontalStack=0;resizeParent=1;resizeParentMax=0;resizeLast=0;collapsible=1;marginBottom=0;strokeColor=#6c8ebf;" parent="WIyWlLk6GJQsqaUBKTNV-1" vertex="1">
          <mxGeometry x="-120" y="10" width="260" height="156" as="geometry" />
        </mxCell>
        <mxCell id="D87iinh34pLvcW_0fAWq-442" value="save(path)    " style="text;strokeColor=none;fillColor=none;align=left;verticalAlign=top;spacingLeft=4;spacingRight=4;overflow=hidden;rotatable=0;points=[[0,0.5],[1,0.5]];portConstraint=eastwest;" parent="D87iinh34pLvcW_0fAWq-441" vertex="1">
          <mxGeometry y="26" width="260" height="26" as="geometry" />
        </mxCell>
        <mxCell id="D87iinh34pLvcW_0fAWq-443" value="clean()" style="text;strokeColor=none;fillColor=none;align=left;verticalAlign=top;spacingLeft=4;spacingRight=4;overflow=hidden;rotatable=0;points=[[0,0.5],[1,0.5]];portConstraint=eastwest;" parent="D87iinh34pLvcW_0fAWq-441" vertex="1">
          <mxGeometry y="52" width="260" height="26" as="geometry" />
        </mxCell>
        <mxCell id="D87iinh34pLvcW_0fAWq-444" value="make_roi(Roi)" style="text;strokeColor=none;fillColor=none;align=left;verticalAlign=top;spacingLeft=4;spacingRight=4;overflow=hidden;rotatable=0;points=[[0,0.5],[1,0.5]];portConstraint=eastwest;" parent="D87iinh34pLvcW_0fAWq-441" vertex="1">
          <mxGeometry y="78" width="260" height="26" as="geometry" />
        </mxCell>
        <mxCell id="D87iinh34pLvcW_0fAWq-445" value="make_seeker(Seeker)" style="text;strokeColor=none;fillColor=none;align=left;verticalAlign=top;spacingLeft=4;spacingRight=4;overflow=hidden;rotatable=0;points=[[0,0.5],[1,0.5]];portConstraint=eastwest;" parent="D87iinh34pLvcW_0fAWq-441" vertex="1">
          <mxGeometry y="104" width="260" height="26" as="geometry" />
        </mxCell>
        <mxCell id="D87iinh34pLvcW_0fAWq-446" value="make_sneaker(Sneaker)" style="text;strokeColor=none;fillColor=none;align=left;verticalAlign=top;spacingLeft=4;spacingRight=4;overflow=hidden;rotatable=0;points=[[0,0.5],[1,0.5]];portConstraint=eastwest;" parent="D87iinh34pLvcW_0fAWq-441" vertex="1">
          <mxGeometry y="130" width="260" height="26" as="geometry" />
        </mxCell>
        <mxCell id="D87iinh34pLvcW_0fAWq-448" value="" style="endArrow=block;endSize=10;endFill=0;shadow=0;strokeWidth=1;rounded=0;edgeStyle=elbowEdgeStyle;elbow=vertical;entryX=0.5;entryY=0;entryDx=0;entryDy=0;exitX=0.5;exitY=1;exitDx=0;exitDy=0;" parent="WIyWlLk6GJQsqaUBKTNV-1" source="D87iinh34pLvcW_0fAWq-441" target="D87iinh34pLvcW_0fAWq-2" edge="1">
          <mxGeometry width="160" relative="1" as="geometry">
            <mxPoint x="110" y="220" as="sourcePoint" />
            <mxPoint x="140" y="190" as="targetPoint" />
            <Array as="points">
              <mxPoint x="160" y="217.5" />
              <mxPoint x="110" y="219.5" />
              <mxPoint x="10" y="233.5" />
              <mxPoint x="-10" y="220.5" />
              <mxPoint x="20" y="246.5" />
              <mxPoint x="50" y="584.5" />
            </Array>
          </mxGeometry>
        </mxCell>
        <mxCell id="D87iinh34pLvcW_0fAWq-451" value="Player &lt;abstruct&gt;" style="swimlane;fontStyle=3;childLayout=stackLayout;horizontal=1;startSize=26;fillColor=#fff2cc;horizontalStack=0;resizeParent=1;resizeParentMax=0;resizeLast=0;collapsible=1;marginBottom=0;strokeColor=#d6b656;" parent="WIyWlLk6GJQsqaUBKTNV-1" vertex="1">
          <mxGeometry x="451" y="20" width="260" height="78" as="geometry" />
        </mxCell>
        <mxCell id="D87iinh34pLvcW_0fAWq-455" value="los" style="text;strokeColor=none;fillColor=none;align=left;verticalAlign=top;spacingLeft=4;spacingRight=4;overflow=hidden;rotatable=0;points=[[0,0.5],[1,0.5]];portConstraint=eastwest;" parent="D87iinh34pLvcW_0fAWq-451" vertex="1">
          <mxGeometry y="26" width="260" height="26" as="geometry" />
        </mxCell>
        <mxCell id="D87iinh34pLvcW_0fAWq-456" value="fov" style="text;strokeColor=none;fillColor=none;align=left;verticalAlign=top;spacingLeft=4;spacingRight=4;overflow=hidden;rotatable=0;points=[[0,0.5],[1,0.5]];portConstraint=eastwest;" parent="D87iinh34pLvcW_0fAWq-451" vertex="1">
          <mxGeometry y="52" width="260" height="26" as="geometry" />
        </mxCell>
        <mxCell id="D87iinh34pLvcW_0fAWq-457" value="" style="endArrow=block;endSize=10;endFill=0;shadow=0;strokeWidth=1;rounded=0;edgeStyle=elbowEdgeStyle;elbow=vertical;exitX=0.5;exitY=0;exitDx=0;exitDy=0;" parent="WIyWlLk6GJQsqaUBKTNV-1" source="D87iinh34pLvcW_0fAWq-0" target="D87iinh34pLvcW_0fAWq-456" edge="1">
          <mxGeometry width="160" relative="1" as="geometry">
            <mxPoint x="240" y="120" as="sourcePoint" />
            <mxPoint x="430" y="194" as="targetPoint" />
            <Array as="points">
              <mxPoint x="520" y="200" />
              <mxPoint x="340" y="173.5" />
              <mxPoint x="240" y="187.5" />
              <mxPoint x="220" y="174.5" />
              <mxPoint x="250" y="200.5" />
              <mxPoint x="280" y="538.5" />
            </Array>
          </mxGeometry>
        </mxCell>
        <mxCell id="D87iinh34pLvcW_0fAWq-458" value="" style="endArrow=block;endSize=10;endFill=0;shadow=0;strokeWidth=1;rounded=0;edgeStyle=elbowEdgeStyle;elbow=vertical;exitX=0.5;exitY=0;exitDx=0;exitDy=0;entryX=0.646;entryY=1.089;entryDx=0;entryDy=0;entryPerimeter=0;" parent="WIyWlLk6GJQsqaUBKTNV-1" source="D87iinh34pLvcW_0fAWq-22" target="D87iinh34pLvcW_0fAWq-456" edge="1">
          <mxGeometry width="160" relative="1" as="geometry">
            <mxPoint x="476" y="250" as="sourcePoint" />
            <mxPoint x="530" y="176" as="targetPoint" />
            <Array as="points">
              <mxPoint x="530" y="210" />
              <mxPoint x="350" y="183.5" />
              <mxPoint x="250" y="197.5" />
              <mxPoint x="230" y="184.5" />
              <mxPoint x="260" y="210.5" />
              <mxPoint x="290" y="548.5" />
            </Array>
          </mxGeometry>
        </mxCell>
        <mxCell id="D87iinh34pLvcW_0fAWq-466" value="Vec2D" style="swimlane;fontStyle=1;childLayout=stackLayout;horizontal=1;startSize=26;horizontalStack=0;resizeParent=1;resizeParentMax=0;resizeLast=0;collapsible=1;marginBottom=0;" parent="WIyWlLk6GJQsqaUBKTNV-1" vertex="1">
          <mxGeometry x="-120.00000000000011" y="-400" width="200" height="130" as="geometry" />
        </mxCell>
        <mxCell id="D87iinh34pLvcW_0fAWq-467" value="x" style="text;strokeColor=none;fillColor=none;align=left;verticalAlign=top;spacingLeft=4;spacingRight=4;overflow=hidden;rotatable=0;points=[[0,0.5],[1,0.5]];portConstraint=eastwest;" parent="D87iinh34pLvcW_0fAWq-466" vertex="1">
          <mxGeometry y="26" width="200" height="26" as="geometry" />
        </mxCell>
        <mxCell id="D87iinh34pLvcW_0fAWq-468" value="y" style="text;strokeColor=none;fillColor=none;align=left;verticalAlign=top;spacingLeft=4;spacingRight=4;overflow=hidden;rotatable=0;points=[[0,0.5],[1,0.5]];portConstraint=eastwest;" parent="D87iinh34pLvcW_0fAWq-466" vertex="1">
          <mxGeometry y="52" width="200" height="26" as="geometry" />
        </mxCell>
        <mxCell id="TuvvM4ReO1_hkp3JV9Of-0" value="magnitude" style="text;strokeColor=none;fillColor=none;align=left;verticalAlign=top;spacingLeft=4;spacingRight=4;overflow=hidden;rotatable=0;points=[[0,0.5],[1,0.5]];portConstraint=eastwest;" vertex="1" parent="D87iinh34pLvcW_0fAWq-466">
          <mxGeometry y="78" width="200" height="26" as="geometry" />
        </mxCell>
        <mxCell id="TuvvM4ReO1_hkp3JV9Of-1" value="angle" style="text;strokeColor=none;fillColor=none;align=left;verticalAlign=top;spacingLeft=4;spacingRight=4;overflow=hidden;rotatable=0;points=[[0,0.5],[1,0.5]];portConstraint=eastwest;" vertex="1" parent="D87iinh34pLvcW_0fAWq-466">
          <mxGeometry y="104" width="200" height="26" as="geometry" />
        </mxCell>
        <mxCell id="D87iinh34pLvcW_0fAWq-474" value="" style="endArrow=diamondThin;endFill=0;endSize=24;html=1;exitX=0.5;exitY=1;exitDx=0;exitDy=0;entryX=0.75;entryY=0;entryDx=0;entryDy=0;" parent="WIyWlLk6GJQsqaUBKTNV-1" source="D87iinh34pLvcW_0fAWq-15" target="D87iinh34pLvcW_0fAWq-9" edge="1">
          <mxGeometry width="160" relative="1" as="geometry">
            <mxPoint x="851.0000000000005" y="300.00399999999985" as="sourcePoint" />
            <mxPoint x="957.21" y="399.69" as="targetPoint" />
            <Array as="points">
              <mxPoint x="700" y="370" />
            </Array>
          </mxGeometry>
        </mxCell>
        <mxCell id="TuvvM4ReO1_hkp3JV9Of-2" value="Movable" style="swimlane;fontStyle=1;childLayout=stackLayout;horizontal=1;startSize=26;fillColor=#f5f5f5;horizontalStack=0;resizeParent=1;resizeParentMax=0;resizeLast=0;collapsible=1;marginBottom=0;strokeColor=#666666;fontColor=#333333;" vertex="1" parent="WIyWlLk6GJQsqaUBKTNV-1">
          <mxGeometry x="626.9999999999999" y="-250" width="200" height="130" as="geometry" />
        </mxCell>
        <mxCell id="TuvvM4ReO1_hkp3JV9Of-3" value="speed" style="text;strokeColor=none;fillColor=none;align=left;verticalAlign=top;spacingLeft=4;spacingRight=4;overflow=hidden;rotatable=0;points=[[0,0.5],[1,0.5]];portConstraint=eastwest;" vertex="1" parent="TuvvM4ReO1_hkp3JV9Of-2">
          <mxGeometry y="26" width="200" height="26" as="geometry" />
        </mxCell>
        <mxCell id="TuvvM4ReO1_hkp3JV9Of-4" value="location" style="text;strokeColor=none;fillColor=none;align=left;verticalAlign=top;spacingLeft=4;spacingRight=4;overflow=hidden;rotatable=0;points=[[0,0.5],[1,0.5]];portConstraint=eastwest;" vertex="1" parent="TuvvM4ReO1_hkp3JV9Of-2">
          <mxGeometry y="52" width="200" height="26" as="geometry" />
        </mxCell>
        <mxCell id="TuvvM4ReO1_hkp3JV9Of-5" value="advance(dt)" style="text;strokeColor=none;fillColor=none;align=left;verticalAlign=top;spacingLeft=4;spacingRight=4;overflow=hidden;rotatable=0;points=[[0,0.5],[1,0.5]];portConstraint=eastwest;" vertex="1" parent="TuvvM4ReO1_hkp3JV9Of-2">
          <mxGeometry y="78" width="200" height="26" as="geometry" />
        </mxCell>
        <mxCell id="TuvvM4ReO1_hkp3JV9Of-6" value="set_destination(location)" style="text;strokeColor=none;fillColor=none;align=left;verticalAlign=top;spacingLeft=4;spacingRight=4;overflow=hidden;rotatable=0;points=[[0,0.5],[1,0.5]];portConstraint=eastwest;" vertex="1" parent="TuvvM4ReO1_hkp3JV9Of-2">
          <mxGeometry y="104" width="200" height="26" as="geometry" />
        </mxCell>
        <mxCell id="TuvvM4ReO1_hkp3JV9Of-7" value="" style="endArrow=block;endSize=10;endFill=0;shadow=0;strokeWidth=1;rounded=0;edgeStyle=elbowEdgeStyle;elbow=vertical;exitX=0.5;exitY=0;exitDx=0;exitDy=0;entryX=0.506;entryY=1.054;entryDx=0;entryDy=0;entryPerimeter=0;" edge="1" parent="WIyWlLk6GJQsqaUBKTNV-1" source="D87iinh34pLvcW_0fAWq-451" target="TuvvM4ReO1_hkp3JV9Of-6">
          <mxGeometry width="160" relative="1" as="geometry">
            <mxPoint x="705" y="250" as="sourcePoint" />
            <mxPoint x="629" y="188" as="targetPoint" />
            <Array as="points">
              <mxPoint x="660" y="-50" />
              <mxPoint x="360" y="193.5" />
              <mxPoint x="260" y="207.5" />
              <mxPoint x="240" y="194.5" />
              <mxPoint x="270" y="220.5" />
              <mxPoint x="300" y="558.5" />
            </Array>
          </mxGeometry>
        </mxCell>
        <mxCell id="TuvvM4ReO1_hkp3JV9Of-8" value="" style="endArrow=block;endSize=10;endFill=0;shadow=0;strokeWidth=1;rounded=0;edgeStyle=elbowEdgeStyle;elbow=vertical;exitX=0.5;exitY=0;exitDx=0;exitDy=0;entryX=0.685;entryY=1.127;entryDx=0;entryDy=0;entryPerimeter=0;" edge="1" parent="WIyWlLk6GJQsqaUBKTNV-1" source="D87iinh34pLvcW_0fAWq-15" target="TuvvM4ReO1_hkp3JV9Of-6">
          <mxGeometry width="160" relative="1" as="geometry">
            <mxPoint x="591" y="30" as="sourcePoint" />
            <mxPoint x="738" y="-109" as="targetPoint" />
            <Array as="points">
              <mxPoint x="670" y="-40" />
              <mxPoint x="370" y="203.5" />
              <mxPoint x="270" y="217.5" />
              <mxPoint x="250" y="204.5" />
              <mxPoint x="280" y="230.5" />
              <mxPoint x="310" y="568.5" />
            </Array>
          </mxGeometry>
        </mxCell>
        <mxCell id="TuvvM4ReO1_hkp3JV9Of-9" value="DKIZ" style="swimlane;fontStyle=1;childLayout=stackLayout;horizontal=1;startSize=26;fillColor=#dae8fc;horizontalStack=0;resizeParent=1;resizeParentMax=0;resizeLast=0;collapsible=1;marginBottom=0;strokeColor=#6c8ebf;" vertex="1" parent="WIyWlLk6GJQsqaUBKTNV-1">
          <mxGeometry x="230" y="40" width="170" height="52" as="geometry" />
        </mxCell>
        <mxCell id="TuvvM4ReO1_hkp3JV9Of-10" value="" style="endArrow=block;endSize=10;endFill=0;shadow=0;strokeWidth=1;rounded=0;edgeStyle=elbowEdgeStyle;elbow=vertical;exitX=0.5;exitY=0;exitDx=0;exitDy=0;entryX=0.318;entryY=0.982;entryDx=0;entryDy=0;entryPerimeter=0;" edge="1" parent="WIyWlLk6GJQsqaUBKTNV-1" source="TuvvM4ReO1_hkp3JV9Of-9" target="TuvvM4ReO1_hkp3JV9Of-6">
          <mxGeometry width="160" relative="1" as="geometry">
            <mxPoint x="591" y="30" as="sourcePoint" />
            <mxPoint x="738" y="-109" as="targetPoint" />
            <Array as="points">
              <mxPoint x="510" y="-70" />
              <mxPoint x="370" y="203.5" />
              <mxPoint x="270" y="217.5" />
              <mxPoint x="250" y="204.5" />
              <mxPoint x="280" y="230.5" />
              <mxPoint x="310" y="568.5" />
            </Array>
          </mxGeometry>
        </mxCell>
        <mxCell id="TuvvM4ReO1_hkp3JV9Of-11" value="" style="endArrow=diamondThin;endFill=0;endSize=24;html=1;exitX=0.5;exitY=1;exitDx=0;exitDy=0;" edge="1" parent="WIyWlLk6GJQsqaUBKTNV-1" source="TuvvM4ReO1_hkp3JV9Of-9" target="D87iinh34pLvcW_0fAWq-9">
          <mxGeometry width="160" relative="1" as="geometry">
            <mxPoint x="931" y="354" as="sourcePoint" />
            <mxPoint x="690" y="404" as="targetPoint" />
            <Array as="points">
              <mxPoint x="370" y="300" />
            </Array>
          </mxGeometry>
        </mxCell>
        <mxCell id="TuvvM4ReO1_hkp3JV9Of-12" value="DeployerDKIZ" style="swimlane;fontStyle=1;childLayout=stackLayout;horizontal=1;startSize=26;fillColor=#dae8fc;horizontalStack=0;resizeParent=1;resizeParentMax=0;resizeLast=0;collapsible=1;marginBottom=0;strokeColor=#6c8ebf;" vertex="1" parent="WIyWlLk6GJQsqaUBKTNV-1">
          <mxGeometry x="60" y="730" width="260" height="78" as="geometry" />
        </mxCell>
        <mxCell id="TuvvM4ReO1_hkp3JV9Of-31" value="dkiz" style="text;strokeColor=none;fillColor=none;align=left;verticalAlign=top;spacingLeft=4;spacingRight=4;overflow=hidden;rotatable=0;points=[[0,0.5],[1,0.5]];portConstraint=eastwest;" vertex="1" parent="TuvvM4ReO1_hkp3JV9Of-12">
          <mxGeometry y="26" width="260" height="26" as="geometry" />
        </mxCell>
        <mxCell id="TuvvM4ReO1_hkp3JV9Of-17" value="deploy(player)" style="text;strokeColor=none;fillColor=none;align=left;verticalAlign=top;spacingLeft=4;spacingRight=4;overflow=hidden;rotatable=0;points=[[0,0.5],[1,0.5]];portConstraint=eastwest;" vertex="1" parent="TuvvM4ReO1_hkp3JV9Of-12">
          <mxGeometry y="52" width="260" height="26" as="geometry" />
        </mxCell>
        <mxCell id="TuvvM4ReO1_hkp3JV9Of-18" value="Deployer&lt;interface&gt;" style="swimlane;fontStyle=3;childLayout=stackLayout;horizontal=1;startSize=26;fillColor=#fff2cc;horizontalStack=0;resizeParent=1;resizeParentMax=0;resizeLast=0;collapsible=1;marginBottom=0;strokeColor=#d6b656;" vertex="1" parent="WIyWlLk6GJQsqaUBKTNV-1">
          <mxGeometry x="260" y="610" width="260" height="52" as="geometry" />
        </mxCell>
        <mxCell id="TuvvM4ReO1_hkp3JV9Of-23" value="deploy(player)" style="text;strokeColor=none;fillColor=none;align=left;verticalAlign=top;spacingLeft=4;spacingRight=4;overflow=hidden;rotatable=0;points=[[0,0.5],[1,0.5]];portConstraint=eastwest;" vertex="1" parent="TuvvM4ReO1_hkp3JV9Of-18">
          <mxGeometry y="26" width="260" height="26" as="geometry" />
        </mxCell>
        <mxCell id="TuvvM4ReO1_hkp3JV9Of-24" value="" style="endArrow=block;endSize=10;endFill=0;shadow=0;strokeWidth=1;rounded=0;edgeStyle=elbowEdgeStyle;elbow=vertical;entryX=0.495;entryY=1.059;entryDx=0;entryDy=0;exitX=0.5;exitY=0;exitDx=0;exitDy=0;entryPerimeter=0;" edge="1" parent="WIyWlLk6GJQsqaUBKTNV-1" source="TuvvM4ReO1_hkp3JV9Of-12" target="TuvvM4ReO1_hkp3JV9Of-23">
          <mxGeometry width="160" relative="1" as="geometry">
            <mxPoint x="40" y="256" as="sourcePoint" />
            <mxPoint x="230" y="330" as="targetPoint" />
            <Array as="points">
              <mxPoint x="310" y="690" />
              <mxPoint x="140" y="309.5" />
              <mxPoint x="40" y="323.5" />
              <mxPoint x="20" y="310.5" />
              <mxPoint x="50" y="336.5" />
              <mxPoint x="80" y="674.5" />
            </Array>
          </mxGeometry>
        </mxCell>
        <mxCell id="TuvvM4ReO1_hkp3JV9Of-25" value="" style="endArrow=diamondThin;endFill=0;endSize=24;html=1;exitX=0.5;exitY=0;exitDx=0;exitDy=0;" edge="1" parent="WIyWlLk6GJQsqaUBKTNV-1" source="TuvvM4ReO1_hkp3JV9Of-18">
          <mxGeometry width="160" relative="1" as="geometry">
            <mxPoint x="381" y="446" as="sourcePoint" />
            <mxPoint x="620" y="450" as="targetPoint" />
            <Array as="points">
              <mxPoint x="580" y="490" />
            </Array>
          </mxGeometry>
        </mxCell>
        <mxCell id="TuvvM4ReO1_hkp3JV9Of-27" value="2" style="edgeLabel;html=1;align=center;verticalAlign=middle;resizable=0;points=[];" vertex="1" connectable="0" parent="TuvvM4ReO1_hkp3JV9Of-25">
          <mxGeometry x="0.2534" y="-1" relative="1" as="geometry">
            <mxPoint as="offset" />
          </mxGeometry>
        </mxCell>
        <mxCell id="TuvvM4ReO1_hkp3JV9Of-28" value="DeployerSingularity" style="swimlane;fontStyle=1;childLayout=stackLayout;horizontal=1;startSize=26;fillColor=#dae8fc;horizontalStack=0;resizeParent=1;resizeParentMax=0;resizeLast=0;collapsible=1;marginBottom=0;strokeColor=#6c8ebf;" vertex="1" parent="WIyWlLk6GJQsqaUBKTNV-1">
          <mxGeometry x="381" y="730" width="260" height="78" as="geometry" />
        </mxCell>
        <mxCell id="TuvvM4ReO1_hkp3JV9Of-29" value="location" style="text;strokeColor=none;fillColor=none;align=left;verticalAlign=top;spacingLeft=4;spacingRight=4;overflow=hidden;rotatable=0;points=[[0,0.5],[1,0.5]];portConstraint=eastwest;" vertex="1" parent="TuvvM4ReO1_hkp3JV9Of-28">
          <mxGeometry y="26" width="260" height="26" as="geometry" />
        </mxCell>
        <mxCell id="TuvvM4ReO1_hkp3JV9Of-32" value="deploy(player)" style="text;strokeColor=none;fillColor=none;align=left;verticalAlign=top;spacingLeft=4;spacingRight=4;overflow=hidden;rotatable=0;points=[[0,0.5],[1,0.5]];portConstraint=eastwest;" vertex="1" parent="TuvvM4ReO1_hkp3JV9Of-28">
          <mxGeometry y="52" width="260" height="26" as="geometry" />
        </mxCell>
        <mxCell id="TuvvM4ReO1_hkp3JV9Of-33" value="" style="endArrow=block;endSize=10;endFill=0;shadow=0;strokeWidth=1;rounded=0;edgeStyle=elbowEdgeStyle;elbow=vertical;entryX=0.599;entryY=1.095;entryDx=0;entryDy=0;exitX=0.463;exitY=0.005;exitDx=0;exitDy=0;entryPerimeter=0;exitPerimeter=0;" edge="1" parent="WIyWlLk6GJQsqaUBKTNV-1" source="TuvvM4ReO1_hkp3JV9Of-28" target="TuvvM4ReO1_hkp3JV9Of-23">
          <mxGeometry width="160" relative="1" as="geometry">
            <mxPoint x="200" y="740" as="sourcePoint" />
            <mxPoint x="399" y="674" as="targetPoint" />
            <Array as="points">
              <mxPoint x="320" y="700" />
              <mxPoint x="150" y="319.5" />
              <mxPoint x="50" y="333.5" />
              <mxPoint x="30" y="320.5" />
              <mxPoint x="60" y="346.5" />
              <mxPoint x="90" y="684.5" />
            </Array>
          </mxGeometry>
        </mxCell>
        <mxCell id="TuvvM4ReO1_hkp3JV9Of-34" value="PathPlannerDKIZ" style="swimlane;fontStyle=1;childLayout=stackLayout;horizontal=1;startSize=26;fillColor=#dae8fc;horizontalStack=0;resizeParent=1;resizeParentMax=0;resizeLast=0;collapsible=1;marginBottom=0;strokeColor=#6c8ebf;" vertex="1" parent="WIyWlLk6GJQsqaUBKTNV-1">
          <mxGeometry x="700" y="730" width="260" height="78" as="geometry" />
        </mxCell>
        <mxCell id="TuvvM4ReO1_hkp3JV9Of-35" value="dkiz" style="text;strokeColor=none;fillColor=none;align=left;verticalAlign=top;spacingLeft=4;spacingRight=4;overflow=hidden;rotatable=0;points=[[0,0.5],[1,0.5]];portConstraint=eastwest;" vertex="1" parent="TuvvM4ReO1_hkp3JV9Of-34">
          <mxGeometry y="26" width="260" height="26" as="geometry" />
        </mxCell>
        <mxCell id="TuvvM4ReO1_hkp3JV9Of-36" value="set_path(player)" style="text;strokeColor=none;fillColor=none;align=left;verticalAlign=top;spacingLeft=4;spacingRight=4;overflow=hidden;rotatable=0;points=[[0,0.5],[1,0.5]];portConstraint=eastwest;" vertex="1" parent="TuvvM4ReO1_hkp3JV9Of-34">
          <mxGeometry y="52" width="260" height="26" as="geometry" />
        </mxCell>
        <mxCell id="TuvvM4ReO1_hkp3JV9Of-37" value="PathPlanner&lt;interface&gt;" style="swimlane;fontStyle=3;childLayout=stackLayout;horizontal=1;startSize=26;fillColor=#fff2cc;horizontalStack=0;resizeParent=1;resizeParentMax=0;resizeLast=0;collapsible=1;marginBottom=0;strokeColor=#d6b656;" vertex="1" parent="WIyWlLk6GJQsqaUBKTNV-1">
          <mxGeometry x="900" y="610" width="260" height="52" as="geometry" />
        </mxCell>
        <mxCell id="TuvvM4ReO1_hkp3JV9Of-38" value="set_path(player)" style="text;strokeColor=none;fillColor=none;align=left;verticalAlign=top;spacingLeft=4;spacingRight=4;overflow=hidden;rotatable=0;points=[[0,0.5],[1,0.5]];portConstraint=eastwest;" vertex="1" parent="TuvvM4ReO1_hkp3JV9Of-37">
          <mxGeometry y="26" width="260" height="26" as="geometry" />
        </mxCell>
        <mxCell id="TuvvM4ReO1_hkp3JV9Of-39" value="" style="endArrow=block;endSize=10;endFill=0;shadow=0;strokeWidth=1;rounded=0;edgeStyle=elbowEdgeStyle;elbow=vertical;entryX=0.495;entryY=1.059;entryDx=0;entryDy=0;exitX=0.5;exitY=0;exitDx=0;exitDy=0;entryPerimeter=0;" edge="1" parent="WIyWlLk6GJQsqaUBKTNV-1" source="TuvvM4ReO1_hkp3JV9Of-34" target="TuvvM4ReO1_hkp3JV9Of-38">
          <mxGeometry width="160" relative="1" as="geometry">
            <mxPoint x="680" y="256" as="sourcePoint" />
            <mxPoint x="870" y="330" as="targetPoint" />
            <Array as="points">
              <mxPoint x="950" y="690" />
              <mxPoint x="780" y="309.5" />
              <mxPoint x="680" y="323.5" />
              <mxPoint x="660" y="310.5" />
              <mxPoint x="690" y="336.5" />
              <mxPoint x="720" y="674.5" />
            </Array>
          </mxGeometry>
        </mxCell>
        <mxCell id="TuvvM4ReO1_hkp3JV9Of-40" value="" style="endArrow=diamondThin;endFill=0;endSize=24;html=1;exitX=0.5;exitY=0;exitDx=0;exitDy=0;entryX=0.631;entryY=1.186;entryDx=0;entryDy=0;entryPerimeter=0;" edge="1" parent="WIyWlLk6GJQsqaUBKTNV-1" source="TuvvM4ReO1_hkp3JV9Of-37" target="D87iinh34pLvcW_0fAWq-10">
          <mxGeometry width="160" relative="1" as="geometry">
            <mxPoint x="1032" y="466" as="sourcePoint" />
            <mxPoint x="1271" y="470" as="targetPoint" />
            <Array as="points">
              <mxPoint x="680" y="530" />
            </Array>
          </mxGeometry>
        </mxCell>
        <mxCell id="TuvvM4ReO1_hkp3JV9Of-41" value="2" style="edgeLabel;html=1;align=center;verticalAlign=middle;resizable=0;points=[];" vertex="1" connectable="0" parent="TuvvM4ReO1_hkp3JV9Of-40">
          <mxGeometry x="0.2534" y="-1" relative="1" as="geometry">
            <mxPoint as="offset" />
          </mxGeometry>
        </mxCell>
        <mxCell id="TuvvM4ReO1_hkp3JV9Of-42" value="PathPlannerHeuristic" style="swimlane;fontStyle=1;childLayout=stackLayout;horizontal=1;startSize=26;fillColor=#dae8fc;horizontalStack=0;resizeParent=1;resizeParentMax=0;resizeLast=0;collapsible=1;marginBottom=0;strokeColor=#6c8ebf;" vertex="1" parent="WIyWlLk6GJQsqaUBKTNV-1">
          <mxGeometry x="1021" y="730" width="260" height="78" as="geometry" />
        </mxCell>
        <mxCell id="TuvvM4ReO1_hkp3JV9Of-43" value="dkiz" style="text;strokeColor=none;fillColor=none;align=left;verticalAlign=top;spacingLeft=4;spacingRight=4;overflow=hidden;rotatable=0;points=[[0,0.5],[1,0.5]];portConstraint=eastwest;" vertex="1" parent="TuvvM4ReO1_hkp3JV9Of-42">
          <mxGeometry y="26" width="260" height="26" as="geometry" />
        </mxCell>
        <mxCell id="TuvvM4ReO1_hkp3JV9Of-44" value="set_path(player)" style="text;strokeColor=none;fillColor=none;align=left;verticalAlign=top;spacingLeft=4;spacingRight=4;overflow=hidden;rotatable=0;points=[[0,0.5],[1,0.5]];portConstraint=eastwest;" vertex="1" parent="TuvvM4ReO1_hkp3JV9Of-42">
          <mxGeometry y="52" width="260" height="26" as="geometry" />
        </mxCell>
        <mxCell id="TuvvM4ReO1_hkp3JV9Of-45" value="" style="endArrow=block;endSize=10;endFill=0;shadow=0;strokeWidth=1;rounded=0;edgeStyle=elbowEdgeStyle;elbow=vertical;entryX=0.599;entryY=1.095;entryDx=0;entryDy=0;exitX=0.463;exitY=0.005;exitDx=0;exitDy=0;entryPerimeter=0;exitPerimeter=0;" edge="1" parent="WIyWlLk6GJQsqaUBKTNV-1" source="TuvvM4ReO1_hkp3JV9Of-42" target="TuvvM4ReO1_hkp3JV9Of-38">
          <mxGeometry width="160" relative="1" as="geometry">
            <mxPoint x="840" y="740" as="sourcePoint" />
            <mxPoint x="1039" y="674" as="targetPoint" />
            <Array as="points">
              <mxPoint x="960" y="700" />
              <mxPoint x="790" y="319.5" />
              <mxPoint x="690" y="333.5" />
              <mxPoint x="670" y="320.5" />
              <mxPoint x="700" y="346.5" />
              <mxPoint x="730" y="684.5" />
            </Array>
          </mxGeometry>
        </mxCell>
      </root>
    </mxGraphModel>
  </diagram>
</mxfile>
